# xmcd
#
# Track frame offsets:
#	150
#	17169
#	21673
#	48221
#	63794
#	84829
#	100449
#	121069
#	140998
#
# Disc length: 2225 seconds
#
# Revision: 5
# Processed by: cddbd v1.5.2PL0 Copyright (c) Steve Scherf et al.
# Submitted via: EZCDAudioConverter 1.3.4.1
#
DISCID=7408af09
DTITLE=Mountain - Nantucket Sleighride
DYEAR=1971
DGENRE=
TTITLE0=Don't Look Around
TTITLE1=Taunta (Sammy's Tune)
TTITLE2=Nantucket Sleighride (To Owen Coffin)
TTITLE3=You Can't Get Away
TTITLE4=Tired Angels (To J.M.H.)
TTITLE5=The Animal Trainer And The Toad
TTITLE6=My Lady
TTITLE7=Travellin' In The Dark (To E.M.P.)
TTITLE8=The Great Train Robbery
EXTD=
EXTT0=
EXTT1=
EXTT2=
EXTT3=
EXTT4=
EXTT5=
EXTT6=
EXTT7=
EXTT8=
PLAYORDER=
